<?xml version="1.0"?>

<!DOCTYPE svg PUBLIC '-//W3C//DTD SVG 1.0//EN' 'http://www.w3.org/TR/2001/REC-SVG-20010904/DTD/svg10.dtd'>
<svg fill-opacity="1" xmlns:xlink="http://www.w3.org/1999/xlink" color-rendering="auto" color-interpolation="auto" stroke="black" text-rendering="auto" stroke-linecap="square" width="615" stroke-miterlimit="10" stroke-opacity="1" shape-rendering="auto" fill="black" stroke-dasharray="none" font-weight="normal" stroke-width="1" height="465" xmlns="http://www.w3.org/2000/svg" font-family="&apos;Dialog&apos;" font-style="normal" stroke-linejoin="miter" font-size="12" stroke-dashoffset="0" image-rendering="auto">
  <!--Generated by Marvin with Batik SVG Generator
MolSource:
<?xml version="1.0" encoding="windows-1252"?><cml xmlns="http://www.chemaxon.com" xmlns:xsi="http://www.w3.org/2001/XMLSchema-instance" xsi:schemaLocation="http://www.chemaxon.com/marvin/schema/mrvSchema_14_12_01.xsd" version="ChemAxon file format v14.12.01, generated by v16.2.8.0">
<MDocument><MChemicalStruct><molecule molID="m1"><atomArray atomID="a1 a2 a3 a4 a5 a6 a7 a8 a9 a10 a11 a12 a13 a14 a15 a16 a17 a18 a19 a20 a21 a22 a23 a24 a25" elementType="C C C C C C C C C C C C C C C C C O H C O H C C O" x2="-5.590277671813965 -6.923947012862223 -6.923947012862223 -5.590277671813965 -4.256608330765706 -4.256608330765706 -2.9229096480236656 -1.5892109652816249 -1.5892109652816249 -2.9229096480236656 -2.922880306329883 -1.589210965281624 -0.2555416242333657 -0.25554162423336635 1.2089966234752294 2.114217820522593 1.2091062725892667 -8.257631024999455 -1.5892109652816249 -0.25554162423336557 1.685041554699855 -0.25554162423336624 3.018720676527889 4.352399798355925 3.018720676527889" y2="-0.2423735218741676 -1.012390462433208 -2.552424343551289 -3.3224412841103295 -2.552424343551289 -1.012390462433208 -3.322458225042075 -2.5524921065328603 -1.0124921065328603 -0.24245822504207437 1.2975587151442625 2.067575655703302 1.2975587151442616 -0.24247516597382024 -0.7183319919053259 0.5275406661608804 1.7733806758953818 -3.32241587322518 0.5275078934671398 2.8375587151442616 3.23799175302211 -1.7824751659738203 4.007991753022109 3.23799175302211 5.54799175302211"></atomArray><bondArray><bond id="b1" atomRefs2="a1 a2" order="1"></bond><bond id="b2" atomRefs2="a1 a6" order="1"></bond><bond id="b3" atomRefs2="a2 a3" order="1"></bond><bond id="b4" atomRefs2="a3 a4" order="1"></bond><bond id="b5" atomRefs2="a4 a5" order="2"></bond><bond id="b6" atomRefs2="a5 a6" order="1"></bond><bond id="b7" atomRefs2="a7 a8" order="1"></bond><bond id="b8" atomRefs2="a8 a9" order="1"></bond><bond id="b9" atomRefs2="a9 a10" order="1"></bond><bond id="b10" atomRefs2="a5 a7" order="1"></bond><bond id="b11" atomRefs2="a6 a10" order="2"></bond><bond id="b12" atomRefs2="a11 a12" order="2"></bond><bond id="b13" atomRefs2="a12 a13" order="1"></bond><bond id="b14" atomRefs2="a13 a14" order="1"></bond><bond id="b15" atomRefs2="a9 a14" order="1"></bond><bond id="b16" atomRefs2="a10 a11" order="1"></bond><bond id="b17" atomRefs2="a15 a16" order="1"></bond><bond id="b18" atomRefs2="a16 a17" order="1"></bond><bond id="b19" atomRefs2="a13 a17" order="1"></bond><bond id="b20" atomRefs2="a14 a15" order="1"></bond><bond id="b21" atomRefs2="a3 a18" order="2"></bond><bond id="b22" atomRefs2="a9 a19" order="1"><bondStereo>W</bondStereo></bond><bond id="b23" atomRefs2="a13 a20" order="1"><bondStereo>W</bondStereo></bond><bond id="b24" atomRefs2="a17 a21" order="1"><bondStereo>W</bondStereo></bond><bond id="b25" atomRefs2="a14 a22" order="1"><bondStereo>H</bondStereo></bond><bond id="b26" atomRefs2="a23 a24" order="1"></bond><bond id="b27" atomRefs2="a23 a25" order="2"></bond><bond id="b28" atomRefs2="a21 a23" order="1"></bond></bondArray></molecule></MChemicalStruct></MDocument>
</cml>
-->
  <defs id="genericDefs" />
  <g>
    <defs id="20289731770-defs1">
      <clipPath clipPathUnits="userSpaceOnUse" id="20289731866-clipPath1">
        <path d="M-4.60658597946167 -408.45037841796875 L610.3934326171875 -408.45037841796875 L610.3934326171875 56.54963302612305 L-4.60658597946167 56.54963302612305 L-4.60658597946167 -408.45037841796875 Z" />
      </clipPath>
      <clipPath clipPathUnits="userSpaceOnUse" id="20289731736-clipPath1">
        <path d="M-314.7000427246094 -230.2880401611328 L300.2999572753906 -230.2880401611328 L300.2999572753906 234.7119598388672 L-314.7000427246094 234.7119598388672 L-314.7000427246094 -230.2880401611328 Z" />
      </clipPath>
      <clipPath clipPathUnits="userSpaceOnUse" id="20289731740-clipPath1">
        <path d="M-464.72210693359375 -104.85539245605469 L150.27789306640625 -104.85539245605469 L150.27789306640625 360.14459228515625 L-464.72210693359375 360.14459228515625 L-464.72210693359375 -104.85539245605469 Z" />
      </clipPath>
      <clipPath clipPathUnits="userSpaceOnUse" id="202897310-clipPath1">
        <path d="M-376.41802978515625 -337.186767578125 L238.5819549560547 -337.186767578125 L238.5819549560547 127.813232421875 L-376.41802978515625 127.813232421875 L-376.41802978515625 -337.186767578125 Z" />
      </clipPath>
      <clipPath clipPathUnits="userSpaceOnUse" id="20289731813-clipPath1">
        <path d="M-526.4405517578125 2.0441184043884277 L88.5594253540039 2.0441184043884277 L88.5594253540039 467.04412841796875 L-526.4405517578125 467.04412841796875 L-526.4405517578125 2.0441184043884277 Z" />
      </clipPath>
      <clipPath clipPathUnits="userSpaceOnUse" id="2028973138-clipPath1">
        <path d="M550.8634033203125 4.567209720611572 C557.1278686523438 4.567209720611572 562.2061767578125 9.64554214477539 562.2061767578125 15.909982681274414 L562.2061767578125 38.59553146362305 C562.2061767578125 44.85997009277344 557.1278686523438 49.93830490112305 550.8634033203125 49.93830490112305 L540.0177001953125 49.93830490112305 C533.7532958984375 49.93830490112305 528.6749267578125 44.85997009277344 528.6749267578125 38.59553146362305 L528.6749267578125 15.909982681274414 C528.6749267578125 9.64554214477539 533.7532958984375 4.567209720611572 540.0177001953125 4.567209720611572 ZM489.14495849609375 111.46672058105469 C495.4093933105469 111.46672058105469 500.48773193359375 116.54505920410156 500.48773193359375 122.80949401855469 L500.48773193359375 145.4950408935547 C500.48773193359375 151.75949096679688 495.4093933105469 156.8378143310547 489.14495849609375 156.8378143310547 L478.29925537109375 156.8378143310547 C472.0348205566406 156.8378143310547 466.95648193359375 151.75949096679688 466.95648193359375 145.4950408935547 L466.95648193359375 122.80949401855469 C466.95648193359375 116.54505920410156 472.0348205566406 111.46672058105469 478.29925537109375 111.46672058105469 ZM334.9959411621094 237.3642120361328 C341.0500183105469 237.3642120361328 345.9578552246094 242.27203369140625 345.9578552246094 248.3261260986328 L345.9578552246094 270.24993896484375 C345.9578552246094 276.3040466308594 341.0500183105469 281.21185302734375 334.9959411621094 281.21185302734375 L329.4041442871094 281.21185302734375 C323.35003662109375 281.21185302734375 318.4422302246094 276.3040466308594 318.4422302246094 270.24993896484375 L318.4422302246094 248.3261260986328 C318.4422302246094 242.27203369140625 323.35003662109375 237.3642120361328 329.4041442871094 237.3642120361328 ZM396.71392822265625 344.262939453125 C402.7680358886719 344.262939453125 407.67584228515625 349.1707458496094 407.67584228515625 355.224853515625 L407.67584228515625 377.148681640625 C407.67584228515625 383.2027893066406 402.7680358886719 388.110595703125 396.71392822265625 388.110595703125 L391.12213134765625 388.110595703125 C385.06805419921875 388.110595703125 380.16021728515625 383.2027893066406 380.16021728515625 377.148681640625 L380.16021728515625 355.224853515625 C380.16021728515625 349.1707458496094 385.06805419921875 344.262939453125 391.12213134765625 344.262939453125 ZM29.029438018798828 415.06170654296875 C35.29387664794922 415.06170654296875 40.37221145629883 420.1400146484375 40.37221145629883 426.40447998046875 L40.37221145629883 449.09002685546875 C40.37221145629883 455.3544616699219 35.29387664794922 460.43280029296875 29.029438018798828 460.43280029296875 L18.183734893798828 460.43280029296875 C11.919293403625488 460.43280029296875 6.84096097946167 455.3544616699219 6.84096097946167 449.09002685546875 L6.84096097946167 426.40447998046875 C6.84096097946167 420.1400146484375 11.919293403625488 415.06170654296875 18.183734893798828 415.06170654296875 ZM0 0 L0 465 L615 465 L615 0 Z" />
      </clipPath>
      <clipPath clipPathUnits="userSpaceOnUse" id="2028973138-clipPath2">
        <path d="M0 0 L615 0 L615 465 L0 465 L0 0 Z" />
      </clipPath>
    </defs>
    <g text-rendering="optimizeLegibility" font-size="49" shape-rendering="geometricPrecision" font-family="&apos;Arial&apos;" transform="translate(4.606585832457312,408.4503684401827)">
      <text xml:space="preserve" x="0" y="48" clip-path="url(#20289731866-clipPath1)" stroke="none">O
      </text>
    </g>
    <g text-rendering="optimizeLegibility" font-size="49" shape-rendering="geometricPrecision" font-family="&apos;Arial&apos;" transform="translate(314.7000334003982,230.28803952300768)">
      <text xml:space="preserve" x="0" y="48" clip-path="url(#20289731736-clipPath1)" stroke="none">H
      </text>
    </g>
    <g text-rendering="optimizeLegibility" font-size="49" shape-rendering="geometricPrecision" font-family="&apos;Arial&apos;" transform="translate(464.7221127386122,104.85539561234197)">
      <text xml:space="preserve" x="0" y="48" clip-path="url(#20289731740-clipPath1)" stroke="none">O
      </text>
    </g>
    <g text-rendering="optimizeLegibility" font-size="49" shape-rendering="geometricPrecision" font-family="&apos;Arial&apos;" transform="translate(376.41804399122486,337.186769619892)">
      <text xml:space="preserve" x="0" y="48" clip-path="url(#202897310-clipPath1)" stroke="none">H
      </text>
    </g>
    <g text-rendering="optimizeLegibility" font-size="49" shape-rendering="geometricPrecision" font-family="&apos;Arial&apos;" transform="translate(526.4405759530774,-2.0441184401826717)">
      <text xml:space="preserve" x="0" y="48" clip-path="url(#20289731813-clipPath1)" stroke="none">O
      </text>
    </g>
    <g text-rendering="optimizeLegibility" font-size="49" shape-rendering="geometricPrecision" font-family="&apos;Arial&apos;">
      <path d="M146.2934112548828 293.616943359375 L84.57540130615234 329.2508850097656 C83.85796356201172 329.6651306152344 83.61227416992188 330.5821228027344 84.02649688720703 331.299560546875 C84.44072723388672 332.0169982910156 85.35771179199219 332.2626953125 86.07514953613281 331.84844970703125 L147.79315185546875 296.2145080566406 C148.51060485839844 295.8002624511719 148.75628662109375 294.88330078125 148.34207153320312 294.1658630371094 C147.92784118652344 293.44842529296875 147.01084899902344 293.2027282714844 146.2934112548828 293.616943359375 Z" clip-path="url(#2028973138-clipPath1)" stroke="none" />
    </g>
    <g text-rendering="optimizeLegibility" font-size="49" shape-rendering="geometricPrecision" font-family="&apos;Arial&apos;">
      <path d="M146.2934112548828 296.2145080566406 L208.0114288330078 331.84844970703125 C208.72886657714844 332.2626953125 209.64584350585938 332.0169982910156 210.06007385253906 331.299560546875 C210.47430419921875 330.5821228027344 210.22860717773438 329.6651306152344 209.51116943359375 329.2508850097656 L147.79315185546875 293.616943359375 C147.07571411132812 293.2027282714844 146.1587371826172 293.44842529296875 145.7445068359375 294.1658630371094 C145.3302764892578 294.88330078125 145.5759735107422 295.8002624511719 146.2934112548828 296.2145080566406 Z" clip-path="url(#2028973138-clipPath1)" stroke="none" />
    </g>
    <g text-rendering="optimizeLegibility" font-size="49" shape-rendering="geometricPrecision" font-family="&apos;Arial&apos;">
      <path d="M83.8255615234375 330.5496826171875 L83.8255615234375 401.8175964355469 C83.8255615234375 402.6460266113281 84.49684143066406 403.3172912597656 85.32527160644531 403.3172912597656 C86.1537094116211 403.3172912597656 86.82498931884766 402.6460266113281 86.82498931884766 401.8175964355469 L86.82498931884766 330.5496826171875 C86.82498931884766 329.72125244140625 86.1537094116211 329.0499572753906 85.32527160644531 329.0499572753906 C84.49684143066406 329.0499572753906 83.8255615234375 329.72125244140625 83.8255615234375 330.5496826171875 Z" clip-path="url(#2028973138-clipPath1)" stroke="none" />
    </g>
    <g text-rendering="optimizeLegibility" font-size="49" shape-rendering="geometricPrecision" font-family="&apos;Arial&apos;">
      <path d="M84.57540130615234 403.1163635253906 L146.2934112548828 438.7503356933594 C147.01084899902344 439.16455078125 147.92784118652344 438.9188537597656 148.34205627441406 438.201416015625 C148.75628662109375 437.4839782714844 148.51058959960938 436.5669860839844 147.79315185546875 436.15277099609375 L86.07514953613281 400.518798828125 C85.35771179199219 400.1045837402344 84.44071960449219 400.35028076171875 84.02649688720703 401.0677185058594 C83.61226654052734 401.78515625 83.85796356201172 402.7021484375 84.57540130615234 403.1163635253906 Z" clip-path="url(#2028973138-clipPath1)" stroke="none" />
    </g>
    <g text-rendering="optimizeLegibility" font-size="49" shape-rendering="geometricPrecision" font-family="&apos;Arial&apos;">
      <path d="M147.59219360351562 420.44073486328125 C146.874755859375 420.8549499511719 146.62905883789062 421.7719421386719 147.0432891845703 422.4893798828125 C147.45750427246094 423.2068176269531 148.37449645996094 423.4525146484375 149.09193420410156 423.0382995605469 L195.25486755371094 396.38531494140625 C195.97230529785156 395.9710998535156 196.21800231933594 395.0541076660156 195.8037872314453 394.336669921875 C195.38955688476562 393.6192321777344 194.47256469726562 393.37353515625 193.755126953125 393.78778076171875 ZM146.2934112548828 436.15277099609375 C145.5759735107422 436.5669860839844 145.3302764892578 437.4839782714844 145.7445068359375 438.201416015625 C146.1587371826172 438.9188537597656 147.07571411132812 439.16455078125 147.79315185546875 438.7503356933594 L209.51116943359375 403.1163635253906 C210.22860717773438 402.7021484375 210.47430419921875 401.78515625 210.06007385253906 401.0677185058594 C209.64584350585938 400.35028076171875 208.72886657714844 400.1045837402344 208.0114288330078 400.518798828125 Z" clip-path="url(#2028973138-clipPath1)" stroke="none" />
    </g>
    <g text-rendering="optimizeLegibility" font-size="49" shape-rendering="geometricPrecision" font-family="&apos;Arial&apos;">
      <path d="M210.26100158691406 401.8175964355469 L210.26100158691406 330.5496826171875 C210.26100158691406 329.72125244140625 209.58973693847656 329.0499572753906 208.76129150390625 329.0499572753906 C207.932861328125 329.0499572753906 207.26158142089844 329.72125244140625 207.26158142089844 330.5496826171875 L207.26158142089844 401.8175964355469 C207.26158142089844 402.6460266113281 207.932861328125 403.3172912597656 208.76129150390625 403.3172912597656 C209.58973693847656 403.3172912597656 210.26100158691406 402.6460266113281 210.26100158691406 401.8175964355469 Z" clip-path="url(#2028973138-clipPath1)" stroke="none" />
    </g>
    <g text-rendering="optimizeLegibility" font-size="49" shape-rendering="geometricPrecision" font-family="&apos;Arial&apos;">
      <path d="M271.2304992675781 438.7511291503906 L332.9498596191406 403.1195373535156 C333.66729736328125 402.705322265625 333.91302490234375 401.7883605957031 333.49884033203125 401.0708923339844 C333.08465576171875 400.35345458984375 332.16766357421875 400.10772705078125 331.4501953125 400.52191162109375 L269.7308349609375 436.1535339355469 C269.0133972167969 436.5677185058594 268.7676696777344 437.4847106933594 269.1818542480469 438.2021484375 C269.5960693359375 438.91961669921875 270.5130310058594 439.16534423828125 271.2304992675781 438.7511291503906 Z" clip-path="url(#2028973138-clipPath1)" stroke="none" />
    </g>
    <g text-rendering="optimizeLegibility" font-size="49" shape-rendering="geometricPrecision" font-family="&apos;Arial&apos;">
      <path d="M333.6997375488281 401.82073974609375 L333.6997375488281 330.55438232421875 C333.6997375488281 329.7259521484375 333.0284729003906 329.0546875 332.2000427246094 329.0546875 C331.3716125488281 329.0546875 330.7003173828125 329.7259521484375 330.7003173828125 330.55438232421875 L330.7003173828125 401.82073974609375 C330.7003173828125 402.649169921875 331.3716125488281 403.3204345703125 332.2000427246094 403.3204345703125 C333.0284729003906 403.3204345703125 333.6997375488281 402.649169921875 333.6997375488281 401.82073974609375 Z" clip-path="url(#2028973138-clipPath1)" stroke="none" />
    </g>
    <g text-rendering="optimizeLegibility" font-size="49" shape-rendering="geometricPrecision" font-family="&apos;Arial&apos;">
      <path d="M332.9499206542969 329.255615234375 L271.23052978515625 293.620849609375 C270.5130920410156 293.2066345214844 269.5960998535156 293.45233154296875 269.181884765625 294.1697692871094 C268.7676696777344 294.88720703125 269.01336669921875 295.80419921875 269.7308044433594 296.2184143066406 L331.4501647949219 331.8531494140625 C332.1676025390625 332.26739501953125 333.0845947265625 332.0216979980469 333.4988098144531 331.30426025390625 C333.91302490234375 330.5868225097656 333.6673583984375 329.6698303222656 332.9499206542969 329.255615234375 Z" clip-path="url(#2028973138-clipPath1)" stroke="none" />
    </g>
    <g text-rendering="optimizeLegibility" font-size="49" shape-rendering="geometricPrecision" font-family="&apos;Arial&apos;">
      <path d="M208.0114288330078 403.1163635253906 L269.7308044433594 438.7510986328125 C270.4482421875 439.16534423828125 271.365234375 438.9196472167969 271.7794494628906 438.20220947265625 C272.19366455078125 437.4847717285156 271.9479675292969 436.5677795410156 271.23052978515625 436.153564453125 L209.51116943359375 400.518798828125 C208.79373168945312 400.1045837402344 207.87673950195312 400.35028076171875 207.4625244140625 401.0677185058594 C207.0482940673828 401.78515625 207.2939910888672 402.7021484375 208.0114288330078 403.1163635253906 Z" clip-path="url(#2028973138-clipPath1)" stroke="none" />
    </g>
    <g text-rendering="optimizeLegibility" font-size="49" shape-rendering="geometricPrecision" font-family="&apos;Arial&apos;">
      <path d="M208.01150512695312 329.2508544921875 C207.29403686523438 329.6650390625 207.0482940673828 330.5820007324219 207.4624786376953 331.2994689941406 C207.8766632080078 332.0169372558594 208.79364013671875 332.2626953125 209.51109313964844 331.8485107421875 L271.23046875 296.2184753417969 C271.9479064941406 295.8042907714844 272.19366455078125 294.8872985839844 271.77947998046875 294.16986083984375 C271.36529541015625 293.452392578125 270.4483337402344 293.2066345214844 269.7308654785156 293.6208190917969 ZM222.26783752441406 335.9824523925781 C221.5503692626953 336.3966369628906 221.30462646484375 337.3136291503906 221.71881103515625 338.0310974121094 C222.13299560546875 338.7485656738281 223.0499725341797 338.9942932128906 223.76744079589844 338.5801086425781 L269.93121337890625 311.93017578125 C270.648681640625 311.5159912109375 270.8944091796875 310.5990295410156 270.480224609375 309.8815612792969 C270.0660400390625 309.1640930175781 269.1490783691406 308.9183349609375 268.4316101074219 309.33251953125 Z" clip-path="url(#2028973138-clipPath1)" stroke="none" />
    </g>
    <g text-rendering="optimizeLegibility" font-size="49" shape-rendering="geometricPrecision" font-family="&apos;Arial&apos;">
      <path d="M269.7321472167969 222.35372924804688 C269.01470947265625 222.76795959472656 268.7690124511719 223.68495178222656 269.1832580566406 224.4023895263672 C269.59747314453125 225.1198272705078 270.51446533203125 225.3655242919922 271.2319030761719 224.9512939453125 L332.9499206542969 189.3173370361328 C333.6673278808594 188.9031219482422 333.91302490234375 187.9861297607422 333.4988098144531 187.26869201660156 C333.0845947265625 186.55125427246094 332.1676025390625 186.30555725097656 331.4501647949219 186.71978759765625 ZM283.9883117675781 229.08486938476562 C283.2708740234375 229.49908447265625 283.0251770019531 230.41607666015625 283.43939208984375 231.13351440429688 C283.8536376953125 231.8509521484375 284.7705993652344 232.09664916992188 285.488037109375 231.6824188232422 L331.651123046875 205.0293731689453 C332.3685607910156 204.61514282226562 332.6142578125 203.6981658935547 332.2000427246094 202.98072814941406 C331.7857971191406 202.26327514648438 330.86883544921875 202.01759338378906 330.1513671875 202.4318084716797 Z" clip-path="url(#2028973138-clipPath1)" stroke="none" />
    </g>
    <g text-rendering="optimizeLegibility" font-size="49" shape-rendering="geometricPrecision" font-family="&apos;Arial&apos;">
      <path d="M331.4501647949219 189.3173370361328 L393.1681823730469 224.9512939453125 C393.8856201171875 225.3655242919922 394.8025817871094 225.1198272705078 395.2168273925781 224.4023895263672 C395.63104248046875 223.68495178222656 395.3853454589844 222.76795959472656 394.66790771484375 222.35372924804688 L332.9499206542969 186.71978759765625 C332.2324523925781 186.30555725097656 331.31549072265625 186.55125427246094 330.9012451171875 187.26869201660156 C330.4870300292969 187.9861297607422 330.73272705078125 188.9031219482422 331.4501647949219 189.3173370361328 Z" clip-path="url(#2028973138-clipPath1)" stroke="none" />
    </g>
    <g text-rendering="optimizeLegibility" font-size="49" shape-rendering="geometricPrecision" font-family="&apos;Arial&apos;">
      <path d="M392.4183349609375 223.6525115966797 L392.4183349609375 294.9204406738281 C392.4183349609375 295.7488708496094 393.089599609375 296.4201354980469 393.91802978515625 296.4201354980469 C394.7464904785156 296.4201354980469 395.4177551269531 295.7488708496094 395.4177551269531 294.9204406738281 L395.4177551269531 223.6525115966797 C395.4177551269531 222.82408142089844 394.7464904785156 222.15280151367188 393.91802978515625 222.15280151367188 C393.089599609375 222.15280151367188 392.4183349609375 222.82408142089844 392.4183349609375 223.6525115966797 Z" clip-path="url(#2028973138-clipPath1)" stroke="none" />
    </g>
    <g text-rendering="optimizeLegibility" font-size="49" shape-rendering="geometricPrecision" font-family="&apos;Arial&apos;">
      <path d="M332.9499206542969 331.8531494140625 L394.66790771484375 296.2192077636719 C395.3853454589844 295.80499267578125 395.63104248046875 294.88800048828125 395.2168273925781 294.1705627441406 C394.8025817871094 293.453125 393.8856201171875 293.2074279785156 393.1681823730469 293.62164306640625 L331.4501647949219 329.255615234375 C330.73272705078125 329.6698303222656 330.4870300292969 330.5868225097656 330.9012451171875 331.30426025390625 C331.31549072265625 332.0216979980469 332.2324523925781 332.26739501953125 332.9499206542969 331.8531494140625 Z" clip-path="url(#2028973138-clipPath1)" stroke="none" />
    </g>
    <g text-rendering="optimizeLegibility" font-size="49" shape-rendering="geometricPrecision" font-family="&apos;Arial&apos;">
      <path d="M271.9803771972656 294.919677734375 L271.98175048828125 223.6525421142578 C271.98175048828125 222.82411193847656 271.31048583984375 222.15281677246094 270.4820556640625 222.15280151367188 C269.65362548828125 222.1527862548828 268.9823303222656 222.8240509033203 268.9822998046875 223.65248107910156 L268.98095703125 294.91961669921875 C268.9809265136719 295.748046875 269.6521911621094 296.4193420410156 270.4806213378906 296.4193420410156 C271.30908203125 296.41937255859375 271.9803466796875 295.74810791015625 271.9803771972656 294.919677734375 Z" clip-path="url(#2028973138-clipPath1)" stroke="none" />
    </g>
    <g text-rendering="optimizeLegibility" font-size="49" shape-rendering="geometricPrecision" font-family="&apos;Arial&apos;">
      <path d="M462.905517578125 317.8231201171875 L504.79632568359375 260.1680603027344 C505.28326416015625 259.49786376953125 505.134765625 258.5602111816406 504.4645690917969 258.0732421875 C503.79437255859375 257.5863037109375 502.8567199707031 257.7347717285156 502.3697509765625 258.4049987792969 L460.4789733886719 316.06005859375 C459.9920349121094 316.7302551269531 460.1405029296875 317.66790771484375 460.81072998046875 318.15484619140625 C461.4809265136719 318.6418151855469 462.4185791015625 318.4933166503906 462.905517578125 317.8231201171875 Z" clip-path="url(#2028973138-clipPath1)" stroke="none" />
    </g>
    <g text-rendering="optimizeLegibility" font-size="49" shape-rendering="geometricPrecision" font-family="&apos;Arial&apos;">
      <path d="M504.7963562011719 258.405029296875 L462.91064453125 200.75149536132812 C462.4237060546875 200.08126831054688 461.486083984375 199.9327392578125 460.81585693359375 200.41966247558594 C460.1456298828125 200.90658569335938 459.9971008300781 201.84423828125 460.4840087890625 202.51446533203125 L502.3697204589844 260.1679992675781 C502.8566589355469 260.8382263183594 503.7942810058594 260.98675537109375 504.4645080566406 260.4998474121094 C505.1347351074219 260.0129089355469 505.28326416015625 259.07525634765625 504.7963562011719 258.405029296875 Z" clip-path="url(#2028973138-clipPath1)" stroke="none" />
    </g>
    <g text-rendering="optimizeLegibility" font-size="49" shape-rendering="geometricPrecision" font-family="&apos;Arial&apos;">
      <path d="M394.38140869140625 225.07884216308594 L462.16070556640625 203.05931091308594 C462.9486083984375 202.8033447265625 463.3796081542969 201.95750427246094 463.1236572265625 201.1696014404297 C462.8677062988281 200.38169860839844 462.0218505859375 199.95068359375 461.23394775390625 200.20664978027344 L393.4546813964844 222.22618103027344 C392.6667785644531 222.48214721679688 392.2357482910156 223.32798767089844 392.49169921875 224.1158905029297 C392.7476806640625 224.90379333496094 393.593505859375 225.33480834960938 394.38140869140625 225.07884216308594 Z" clip-path="url(#2028973138-clipPath1)" stroke="none" />
    </g>
    <g text-rendering="optimizeLegibility" font-size="49" shape-rendering="geometricPrecision" font-family="&apos;Arial&apos;">
      <path d="M393.4546203613281 296.34674072265625 L461.22882080078125 318.3678894042969 C462.0166931152344 318.6239013671875 462.8625793457031 318.1929016113281 463.1185607910156 317.405029296875 C463.37457275390625 316.61712646484375 462.9435729980469 315.7712707519531 462.15570068359375 315.5152587890625 L394.3814697265625 293.4941101074219 C393.5935974121094 293.2381286621094 392.74774169921875 293.6690979003906 392.4917297363281 294.4570007324219 C392.2357177734375 295.244873046875 392.6667175292969 296.0907287597656 393.4546203613281 296.34674072265625 Z" clip-path="url(#2028973138-clipPath1)" stroke="none" />
    </g>
    <g text-rendering="optimizeLegibility" font-size="49" shape-rendering="geometricPrecision" font-family="&apos;Arial&apos;">
      <path d="M92.5538101196289 406.8569641113281 C93.27125549316406 406.4427490234375 93.5169677734375 405.5257568359375 93.10275268554688 404.8083190917969 C92.68854522705078 404.09088134765625 91.77156066894531 403.84515380859375 91.05411529541016 404.2593688964844 L49.42325210571289 428.29461669921875 C48.705806732177734 428.7088317871094 48.4600944519043 429.6258239746094 48.874305725097656 430.34326171875 C49.288516998291016 431.0606994628906 50.205501556396484 431.3064270019531 50.922950744628906 430.8922119140625 ZM86.07512664794922 395.6353759765625 C86.79257202148438 395.2211608886719 87.03828430175781 394.30419921875 86.62406921386719 393.58673095703125 C86.20985412597656 392.8692932128906 85.29287719726562 392.62359619140625 84.57542419433594 393.0378112792969 L42.94456481933594 417.0730285644531 C42.22711944580078 417.48724365234375 41.981407165527344 418.40423583984375 42.3956184387207 419.1216735839844 C42.80982971191406 419.839111328125 43.72681427001953 420.0848388671875 44.44426345825195 419.6706237792969 Z" clip-path="url(#2028973138-clipPath1)" stroke="none" />
    </g>
    <g text-rendering="optimizeLegibility" font-size="49" shape-rendering="geometricPrecision" font-family="&apos;Arial&apos;">
      <path d="M332.2000427246094 330.55438232421875 L333.6997375488281 330.55438232421875 L339.6986083984375 287.2107238769531 L332.2000427246094 287.2107238769531 L324.70147705078125 287.2107238769531 L330.7003173828125 330.55438232421875 Z" clip-path="url(#2028973138-clipPath1)" stroke="none" />
    </g>
    <g text-rendering="optimizeLegibility" font-size="49" shape-rendering="geometricPrecision" font-family="&apos;Arial&apos;">
      <path d="M393.91802978515625 223.6525115966797 L395.4177551269531 223.6525115966797 L401.4165954589844 152.38616943359375 L393.91802978515625 152.38616943359375 L386.41949462890625 152.38616943359375 L392.4183349609375 223.6525115966797 Z" clip-path="url(#2028973138-clipPath1)" stroke="none" />
    </g>
    <g text-rendering="optimizeLegibility" font-size="49" shape-rendering="geometricPrecision" font-family="&apos;Arial&apos;">
      <path d="M461.69732666015625 201.6329803466797 L463.1236267089844 202.09646606445312 L481.7740173339844 164.1136932373047 L474.6425476074219 161.7962646484375 L467.51104736328125 159.4788360595703 L460.2710266113281 201.16949462890625 Z" clip-path="url(#2028973138-clipPath1)" stroke="none" />
    </g>
    <g text-rendering="optimizeLegibility" font-size="49" shape-rendering="geometricPrecision" font-family="&apos;Arial&apos;">
      <path d="M397.126953125 307.27001953125 L396.71185302734375 304.2705993652344 L391.1242370605469 304.2705993652344 L391.1242370605469 304.2705993652344 L390.7091064453125 307.27001953125 L390.7091064453125 307.27001953125 L397.126953125 307.27001953125 ZM399.27178955078125 322.7670593261719 L398.8566589355469 319.76763916015625 L398.8566589355469 319.76763916015625 L388.97943115234375 319.76763916015625 L388.5643005371094 322.7670593261719 L388.5643005371094 322.7670593261719 L399.27178955078125 322.7670593261719 ZM401.4165954589844 338.26409912109375 L401.0014953613281 335.2646789550781 L401.0014953613281 335.2646789550781 L386.8345947265625 335.2646789550781 L386.8345947265625 335.2646789550781 L386.41949462890625 338.26409912109375 L393.91802978515625 338.26409912109375 L401.4165954589844 338.26409912109375 Z" clip-path="url(#2028973138-clipPath1)" stroke="none" />
    </g>
    <g text-rendering="optimizeLegibility" font-size="49" shape-rendering="geometricPrecision" font-family="&apos;Arial&apos;">
      <path d="M544.6907348632812 99.52101135253906 L606.4091796875 135.15419006347656 C607.1266479492188 135.5684051513672 608.0435791015625 135.32269287109375 608.4578247070312 134.60525512695312 C608.8720703125 133.88780212402344 608.6263427734375 132.9708251953125 607.9088745117188 132.55661010742188 L546.1904296875 96.92343139648438 C545.4729614257812 96.50921630859375 544.5560302734375 96.75492095947266 544.1417846679688 97.47236633300781 C543.7276000976562 98.18981170654297 543.9732666015625 99.10679626464844 544.6907348632812 99.52101135253906 Z" clip-path="url(#2028973138-clipPath1)" stroke="none" />
    </g>
    <g text-rendering="optimizeLegibility" font-size="49" shape-rendering="geometricPrecision" font-family="&apos;Arial&apos;">
      <path d="M537.4620971679688 101.96273803710938 C537.4620971679688 102.79116821289062 538.1333618164062 103.46244812011719 538.9617919921875 103.46244812011719 C539.7902221679688 103.46244812011719 540.4615478515625 102.79116821289062 540.4615478515625 101.96273803710938 L540.4615478515625 55.93715286254883 C540.4615478515625 55.10871887207031 539.7902221679688 54.43743896484375 538.9617919921875 54.43743896484375 C538.1333618164062 54.43743896484375 537.4620971679688 55.10871887207031 537.4620971679688 55.93715286254883 ZM550.4196166992188 101.96273803710938 C550.4196166992188 102.79116821289062 551.0908813476562 103.46244812011719 551.9193115234375 103.46244812011719 C552.7477416992188 103.46244812011719 553.4190673828125 102.79116821289062 553.4190673828125 101.96273803710938 L553.4190673828125 55.93715286254883 C553.4190673828125 55.10871887207031 552.7477416992188 54.43743896484375 551.9193115234375 54.43743896484375 C551.0908813476562 54.43743896484375 550.4196166992188 55.10871887207031 550.4196166992188 55.93715286254883 Z" clip-path="url(#2028973138-clipPath1)" stroke="none" />
    </g>
    <g text-rendering="optimizeLegibility" font-size="49" shape-rendering="geometricPrecision" font-family="&apos;Arial&apos;">
      <path d="M507.0604553222656 122.11272430419922 L546.1904296875 99.52101135253906 C546.9078979492188 99.10679626464844 547.153564453125 98.18981170654297 546.7393798828125 97.47236633300781 C546.3251342773438 96.75492095947266 545.4081420898438 96.50921630859375 544.6907348632812 96.92343139648438 L505.56072998046875 119.51514434814453 C504.8432922363281 119.92935943603516 504.59759521484375 120.84634399414062 505.0118103027344 121.56378936767578 C505.426025390625 122.28123474121094 506.3429870605469 122.52693939208984 507.0604553222656 122.11272430419922 Z" clip-path="url(#2028973138-clipPath1)" stroke="none" />
    </g>
  </g>
</svg>
